<?xml version="1.0" standalone="no"?>
<!DOCTYPE svg PUBLIC "-//W3C//DTD SVG 20010904//EN"
 "http://www.w3.org/TR/2001/REC-SVG-20010904/DTD/svg10.dtd">
<svg version="1.0" xmlns="http://www.w3.org/2000/svg"
 width="102.000000pt" height="102.000000pt" viewBox="0 0 102.000000 102.000000"
 preserveAspectRatio="xMidYMid meet">
<metadata>
Created by potrace 1.11, written by Peter Selinger 2001-2013
</metadata>
<g transform="translate(0.000000,102.000000) scale(0.100000,-0.100000)"
fill="#000000" stroke="none">
<path d="M488 1005 c-3 -3 -23 -7 -44 -9 -55 -6 -125 -35 -193 -80 -95 -63
-170 -164 -206 -278 -60 -188 10 -416 161 -530 57 -44 139 -85 186 -94 102
-18 228 -6 313 32 22 10 43 17 48 16 4 -1 7 2 7 8 0 5 15 16 33 25 17 9 43 26
57 38 24 21 110 160 110 178 0 4 -35 -16 -77 -45 -72 -50 -111 -70 -203 -107
-54 -22 -232 -19 -295 5 -186 71 -269 248 -211 449 38 132 133 220 296 274 8
3 44 4 81 4 55 -2 85 -7 154 -24 46 -12 165 -126 165 -158 0 -10 7 -25 17 -34
9 -9 12 -20 7 -23 -16 -12 -15 -32 1 -26 8 4 16 1 16 -5 1 -6 2 -19 3 -28 1
-10 4 -22 7 -28 4 -5 5 -32 3 -60 -12 -160 -11 -167 13 -102 8 23 12 26 13 12
1 -18 1 -19 11 -2 5 9 7 22 4 27 -3 6 -1 10 6 10 8 0 8 4 -1 15 -10 12 -9 16
3 21 9 3 14 16 13 34 -1 17 3 31 8 33 7 2 6 10 -3 20 -7 10 -11 17 -7 17 3 0
1 11 -4 25 -6 17 -6 25 1 25 6 0 7 5 4 11 -4 5 -9 25 -12 42 -2 18 -11 42 -19
54 -8 13 -13 24 -12 26 2 1 -9 16 -24 32 -16 16 -28 35 -28 42 0 14 -100 93
-118 93 -5 0 -12 5 -14 11 -2 5 -10 11 -18 13 -20 4 -51 15 -71 26 -20 10
-173 23 -181 15z"/>
<path d="M708 699 c-25 -14 -24 -65 1 -79 27 -14 47 -13 65 6 44 44 -12 105
-66 73z"/>
<path d="M380 620 c-16 -16 -18 -24 -9 -49 12 -33 40 -44 75 -29 48 22 26 98
-28 98 -10 0 -27 -9 -38 -20z"/>
<path d="M804 542 c-6 -4 -19 -29 -29 -55 -46 -123 -161 -171 -234 -98 -31 31
-69 53 -80 47 -12 -8 0 -54 23 -88 43 -66 174 -77 244 -22 51 42 99 137 92
186 -3 24 -9 35 -16 30z"/>
</g>
</svg>
